<svg id="レイヤー_1" data-name="レイヤー 1" xmlns="http://www.w3.org/2000/svg" viewBox="0 0 274 297"><defs><style>.cls-1{fill:#c24968;}.cls-1,.cls-2{stroke:#000;stroke-miterlimit:10;stroke-width:20px;}.cls-2{fill:none;}.cls-3{fill:#fbe9e1;}</style></defs><path class="cls-1" d="M259,810.87V698.43c0-17.84,7.48-33.37,18.51-41.37C282.61,614,310.76,581,344.72,581c16.78,0,32.14,8,44,21.39,11.86-13.34,27.22-21.39,44-21.39,35.38,0,64.45,35.78,67.72,81.5C508.12,671.13,513,684,513,698.43V810.87c0,26-15.93,47.13-35.58,47.13H294.58C274.93,858,259,836.9,259,810.87Z" transform="translate(-249 -571)"/><line class="cls-2" x1="137" y1="31" x2="137" y2="287"/><path class="cls-3" d="M404.14,773.19l20.51-103.34a18.49,18.49,0,0,0-18.14-22.09h-41a18.49,18.49,0,0,0-18.14,22.09l20.51,103.34C371.8,793.06,400.2,793.06,404.14,773.19Z" transform="translate(-249 -571)"/><circle class="cls-3" cx="137" cy="251.2" r="19.05"/></svg>